<?xml version="1.0" encoding="utf-8"?>
<!-- Generator: Adobe Illustrator 23.0.1, SVG Export Plug-In . SVG Version: 6.00 Build 0)  -->
<svg version="1.1" id="Layer_1" xmlns="http://www.w3.org/2000/svg" xmlns:xlink="http://www.w3.org/1999/xlink" x="0px" y="0px"
	 viewBox="0 0 525 600" style="enable-background:new 0 0 525 600;" xml:space="preserve">
<style type="text/css">
	.st0{fill:#FFFFFF;}
	.st1{fill:#008855;}
</style>
<g>
	
		<image style="overflow:visible;opacity:0.75;" width="530" height="631" xlink:href="387D5014.png"  transform="matrix(1 0 0 1 4.5 -8)">
	</image>
	<g>
		<polygon class="st0" points="512.5,0 512.5,500 320.2,500 262.5,600 204.8,500 12.5,500 12.5,0 		"/>
	</g>
</g>
<rect x="25" y="12.5" class="st1" width="475" height="475"/>
<path class="st0" d="M344.3,90.3h117.9v39.3H344.3V90.3z M383.6,51h39.3v117.9h-39.3V51z"/>
<path class="st0" d="M153.1,164.7c-46.5,0.5-88.2,46.8-75.6,107.8c9.4,46.8,59.1,107.3,145.6,165.9
	c86.5-58.9,136.1-119.4,145.6-165.9c12.6-61.3-28.8-107.3-75.6-107.8c-24-0.5-54,12.4-70,42.9C207.2,177,177.1,164.2,153.1,164.7
	L153.1,164.7z M260.5,201.7l-40.7,83.6h51.6L181,390.4l34.9-82.4h-50.1L260.5,201.7z"/>
<script  id="bw-fido2-page-script" xmlns=""></script>
</svg>
